<?xml version="1.0" encoding="utf-8"?>
<!DOCTYPE svg PUBLIC "-//W3C//DTD SVG 1.1//EN" "http://www.w3.org/Graphics/SVG/1.1/DTD/svg11.dtd">
<svg version="1.1" id="Layer_1" xmlns="http://www.w3.org/2000/svg" xmlns:xlink="http://www.w3.org/1999/xlink" x="0px" y="0px"
	 width="323.8px" height="85px" viewBox="0 0 323.8 85" enable-background="new 0 0 323.8 85" xml:space="preserve">
<g>
	<path fill="white" d="M24.1,58.1l6.5-15.2C29.8,42.9,29,43,28,43s-1.9,0.1-2.9,0.2c-0.9,0.1-1.8,0.2-2.6,0.3c-0.8,0.1-1.4,0.3-1.9,0.5l-0.2-0.9
		c0.9-0.5,1.8-1,2.9-1.3c1-0.4,2-0.7,3.1-0.9c1-0.2,2-0.4,3-0.6c1-0.2,1.8-0.3,2.6-0.3l6.2-14.4c0.6-1.4,1.3-2.8,2-3.9
		c-1.4-0.3-2.8-0.6-4.1-1c-1.4-0.4-2.7-0.8-4-1.2c-1.3-0.4-2.6-0.8-3.8-1.2c-1.2-0.4-2.4-0.8-3.4-1.1c-1.4-0.4-2.7-0.6-3.8-0.6
		c-1.4,0-2.5,0.2-3.3,0.6s-1.5,0.9-2,1.4c-0.5,0.5-0.8,1.1-0.9,1.7c-0.2,0.6-0.2,1.1-0.2,1.4c0,0.6,0.1,1.1,0.4,1.7
		c0.2,0.5,0.6,1,1,1.4c0.4,0.4,1,0.7,1.6,0.9c0.6,0.2,1.4,0.4,2.2,0.4c0.6,0,1.3-0.1,2.1-0.2c0.8-0.1,1.7-0.4,2.7-0.7l-1.3,3.1
		c-0.4,0.2-0.9,0.3-1.5,0.4s-1.2,0.2-1.9,0.2c-0.9,0-1.8-0.1-2.7-0.4c-0.8-0.3-1.6-0.6-2.2-1.2c-0.6-0.5-1.1-1.2-1.5-1.9
		c-0.4-0.8-0.6-1.7-0.6-2.7c0-1.5,0.4-2.8,1.1-3.9c0.7-1.1,1.7-2,2.9-2.7c1.2-0.7,2.5-1.3,4-1.6c1.5-0.4,3-0.5,4.5-0.5
		c1.1,0,2.2,0.2,3.5,0.6c1.3,0.4,2.6,0.9,3.9,1.5c1.4,0.6,2.8,1.2,4.3,1.9c1.5,0.7,3,1.3,4.5,1.8c1.1-1.5,2.2-2.7,3.3-3.7
		c1.2-1,2.3-1.8,3.4-2.4c1.1-0.6,2.2-1,3.2-1.3c1-0.3,1.9-0.4,2.7-0.4c0.8,0,1.5,0.1,2.1,0.3c0.6,0.2,1.1,0.5,1.4,0.8
		c0.4,0.4,0.6,0.8,0.8,1.2c0.2,0.5,0.3,1,0.3,1.5c0,1.1-0.3,2-1,2.9c-0.6,0.9-1.5,1.6-2.5,2.2c-1,0.6-2.2,1.1-3.4,1.4
		c-1.3,0.3-2.6,0.5-3.9,0.5c-0.8,0-1.5,0-2.3-0.1c-0.8-0.1-1.5-0.2-2.3-0.3c-0.3,0.5-0.5,1-0.8,1.5c-0.2,0.5-0.5,1-0.7,1.6l-6,14.4
		h10.2l-1.3,3.1H34.6l-6.4,15.2H24.1z M54.1,12.8c-0.7,0-1.5,0.2-2.3,0.5c-0.8,0.3-1.6,0.8-2.4,1.5c-0.8,0.6-1.6,1.4-2.4,2.4
		c-0.8,0.9-1.6,2-2.3,3.2c1.3,0.3,2.6,0.5,3.9,0.5c1.4,0,2.6-0.2,3.6-0.6c1-0.4,1.8-0.9,2.5-1.5s1.1-1.2,1.4-1.9
		c0.3-0.7,0.5-1.3,0.5-1.8c0-0.6-0.2-1.2-0.6-1.6S54.9,12.8,54.1,12.8z"/>
	<path fill="white" d="M70.3,46.4c-0.7,0.9-1.3,1.6-1.9,2.2c-0.6,0.6-1.2,1.1-1.8,1.5s-1.1,0.7-1.7,0.9c-0.5,0.2-1.1,0.3-1.7,0.4
		c-0.6,0.9-1.4,1.8-2.2,2.7c-0.8,0.8-1.6,1.6-2.5,2.2s-1.8,1.1-2.8,1.5s-2,0.5-2.9,0.5c-0.8,0-1.6-0.1-2.3-0.4
		c-0.8-0.3-1.4-0.7-2-1.2c-0.6-0.5-1.1-1.2-1.4-2.1c-0.4-0.8-0.5-1.8-0.5-2.9c0-1.7,0.3-3.5,0.9-5.2c0.6-1.7,1.5-3.3,2.6-4.8
		c1.1-1.5,2.5-2.8,4-4c1.6-1.2,3.3-2.1,5.2-2.8l0.3,0.5c-1.7,1.4-3.1,3-4.3,4.6c-1.2,1.6-2.2,3.3-3,4.9c-0.8,1.6-1.4,3.3-1.7,4.8
		c-0.4,1.6-0.6,3-0.6,4.2c0,0.4,0,0.8,0.1,1.2c0.1,0.4,0.2,0.7,0.4,1c0.2,0.3,0.4,0.5,0.7,0.7c0.3,0.2,0.6,0.3,0.9,0.3
		c0.5,0,1-0.2,1.6-0.5c0.6-0.3,1.2-0.8,1.8-1.3s1.2-1.2,1.8-2c0.6-0.8,1.2-1.6,1.8-2.4c-1-0.6-1.8-1.4-2.2-2.4
		c-0.5-1-0.7-2.2-0.7-3.4c0-1.1,0.2-2.3,0.6-3.3c0.4-1.1,0.9-2.1,1.6-2.9c0.6-0.8,1.4-1.5,2.1-2c0.8-0.5,1.5-0.8,2.3-0.8
		c0.4,0,0.8,0.1,1.3,0.3c0.5,0.2,0.9,0.5,1.3,0.9c0.4,0.4,0.7,1,1,1.6c0.3,0.7,0.4,1.6,0.4,2.6c0,1.4-0.2,2.8-0.7,4.4
		c-0.5,1.5-1.2,3.1-2,4.5c0.4-0.1,0.8-0.2,1.2-0.4c0.4-0.2,0.8-0.5,1.3-0.8c0.4-0.3,0.9-0.8,1.4-1.3c0.5-0.5,1.1-1.2,1.7-1.9
		L70.3,46.4z M57.4,44.8c0,1.2,0.2,2.2,0.6,3c0.4,0.9,1,1.5,1.8,1.9c0.6-0.9,1.1-1.9,1.6-2.9s0.9-2,1.3-2.9c0.4-1,0.7-1.9,0.9-2.7
		c0.2-0.9,0.3-1.7,0.3-2.3c0-0.3-0.1-0.6-0.2-0.8c-0.1-0.2-0.2-0.4-0.4-0.5c-0.2-0.1-0.3-0.2-0.5-0.2c-0.2,0-0.3-0.1-0.5-0.1
		c-0.4,0-0.9,0.2-1.5,0.6c-0.6,0.4-1.1,1-1.6,1.7c-0.5,0.7-0.9,1.5-1.3,2.4C57.6,42.9,57.4,43.8,57.4,44.8z"/>
	<path fill="white" d="M77,39.2c0-0.1,0-0.2-0.1-0.3c-0.1-0.1-0.2-0.1-0.3-0.1c-0.2,0-0.4,0.1-0.6,0.4l-6.4,7.9l-0.8-0.6l7.3-9
		c0.6-0.7,1.1-1.3,1.8-1.8c0.6-0.5,1.3-0.8,1.9-0.8c0.6,0,1.1,0.2,1.4,0.5c0.3,0.3,0.4,0.7,0.4,1.1c0,0.4-0.1,0.9-0.2,1.4
		c-0.2,0.5-0.3,1.1-0.6,1.6L76.3,50c-0.1,0.3-0.2,0.5-0.2,0.7c0,0.2,0.1,0.3,0.3,0.3c0.2,0,0.5-0.2,0.8-0.6l6.8-10.1
		c0.7-1,1.3-1.9,1.9-2.6c0.5-0.7,1.1-1.3,1.6-1.8c0.5-0.5,0.9-0.8,1.4-1s0.9-0.3,1.4-0.3c0.8,0,1.4,0.2,1.9,0.5
		c0.4,0.3,0.6,0.8,0.6,1.4c0,0.4-0.1,0.7-0.2,1.1s-0.2,0.7-0.3,1.1l-5.6,13.8c-0.1,0.2-0.2,0.4-0.2,0.6c-0.1,0.2-0.1,0.4-0.1,0.5
		c0,0.3,0.1,0.4,0.2,0.5c0.1,0.1,0.3,0.1,0.5,0.1c0.3,0,0.7-0.2,1.1-0.5c0.4-0.3,0.9-0.7,1.4-1.3l5.9-7.3l0.8,0.6l-7.1,8.8
		c-0.5,0.6-1,1.2-1.5,1.6c-0.5,0.4-0.9,0.8-1.3,1c-0.4,0.2-0.8,0.4-1.2,0.5c-0.4,0.1-0.8,0.2-1.2,0.2c-0.6,0-1.2-0.2-1.6-0.6
		c-0.4-0.4-0.6-0.9-0.6-1.4c0-0.5,0.1-1.2,0.4-1.9c0.3-0.7,0.6-1.6,1.1-2.7l5.2-12.4c0.1-0.2,0.1-0.3,0.1-0.5c0-0.4-0.2-0.6-0.6-0.6
		c-0.2,0-0.4,0.1-0.6,0.2c-0.2,0.1-0.4,0.3-0.6,0.6L75.8,54.6c-0.8,1.3-1.6,2.1-2.2,2.7c-0.6,0.5-1.3,0.8-1.9,0.8
		c-1,0-1.5-0.5-1.5-1.4c0-0.5,0.1-1.1,0.4-1.8c0.2-0.7,0.6-1.6,1-2.7l5.4-12.6C77,39.4,77,39.3,77,39.2z"/>
	<path fill="white" d="M110.5,27.6h9.2l-0.6,1.3H110l-10,23.7c-0.1,0.2-0.2,0.5-0.3,0.7c-0.1,0.3-0.1,0.5-0.1,0.8c0,0.3,0.1,0.5,0.2,0.6
		c0.2,0.2,0.4,0.2,0.6,0.2c0.5,0,1-0.2,1.6-0.7c0.6-0.5,1.1-1,1.6-1.6l5.9-7.3l0.8,0.6l-6.8,8.4c-1.1,1.3-2.1,2.2-3,2.8
		c-0.9,0.6-1.8,0.9-2.7,0.9c-0.3,0-0.6,0-1-0.1s-0.6-0.2-0.9-0.4c-0.3-0.2-0.5-0.4-0.6-0.7c-0.2-0.3-0.2-0.6-0.2-1
		c0-0.5,0.1-1.1,0.4-1.8c0.2-0.6,0.6-1.5,1-2.5l6.1-14.6c-0.3,0.5-0.7,1.1-1.2,1.8c-0.5,0.7-1,1.4-1.6,2.3c-0.6,0.8-1.3,1.8-2.2,2.8
		c-0.8,1-1.8,2.2-2.8,3.5l-0.8-0.6c2-2.5,3.7-4.6,4.9-6.4c1.3-1.8,2.4-3.3,3.2-4.7c0.9-1.3,1.6-2.5,2.1-3.6c0.5-1.1,1.1-2.1,1.6-3.1
		h-7.9l0.6-1.3h7.9l2.6-6h3.9L110.5,27.6z"/>
	<path fill="white" d="M161.6,35.3c1.6-2.5,3.1-4.6,4.5-6.3s2.8-3.1,4-4.2c1.2-1.1,2.4-1.8,3.4-2.3c1-0.5,1.9-0.7,2.7-0.7c1.3,0,2.2,0.4,2.7,1.1
		c0.5,0.7,0.8,1.7,0.8,3c0,0.7-0.1,1.5-0.2,2.3s-0.4,1.7-0.6,2.6c-0.2,0.9-0.5,1.8-0.9,2.7c-0.3,0.9-0.7,1.8-1,2.6l-5.4,13.2
		c-1.4,3.3-2.5,6-3.3,8.2s-1.3,3.7-1.3,4.7c0,0.4,0.1,0.8,0.3,1.1c0.2,0.3,0.5,0.4,0.9,0.4c0.2,0,0.4,0,0.6-0.1
		c0.3-0.1,0.6-0.3,1-0.5c0.4-0.3,0.9-0.6,1.4-1.1c0.5-0.5,1.1-1.1,1.8-1.8l1,0.9c-0.8,0.9-1.6,1.7-2.2,2.3c-0.7,0.6-1.3,1-1.8,1.3
		c-0.5,0.3-1,0.5-1.5,0.6c-0.4,0.1-0.8,0.1-1.2,0.1c-0.7,0-1.3-0.1-1.8-0.3s-0.9-0.5-1.2-0.9c-0.3-0.4-0.5-0.8-0.6-1.3
		c-0.1-0.5-0.2-1-0.2-1.5c0-0.8,0.1-1.7,0.3-2.7c0.2-1,0.5-2,0.9-3c0.4-1,0.8-2.1,1.2-3.1c0.4-1,0.9-2.1,1.3-3l5.6-13.2
		c0.5-1.1,1-2.3,1.4-3.4c0.5-1.2,0.9-2.3,1.3-3.3c0.4-1.1,0.7-2,0.9-2.9c0.2-0.9,0.4-1.6,0.4-2.2c0-0.4-0.1-0.8-0.2-1
		c-0.2-0.2-0.4-0.4-0.8-0.4c-1.4,0.2-2.9,1.1-4.7,2.6c-0.8,0.6-1.6,1.4-2.5,2.4c-0.9,1-1.9,2.2-3,3.6c-1.1,1.4-2.2,3.1-3.5,5
		c-1.2,1.9-2.5,4.1-3.9,6.7l-6.2,14.9H148l12.6-30.2c0.5-1.1,1-2.3,1.4-3.5c0.5-1.2,0.9-2.3,1.3-3.3c0.4-1,0.7-2,1-2.9
		c0.2-0.9,0.4-1.6,0.4-2.2c0-0.9-0.3-1.4-1-1.4c-1.4,0.2-3,1-4.8,2.6c-0.8,0.6-1.6,1.5-2.6,2.4c-0.9,1-1.9,2.2-3,3.6
		c-1.1,1.4-2.3,3.1-3.5,5.1c-1.2,2-2.5,4.2-3.9,6.7l-9.8,23h-4L147,23.2c0.5-1.1,1-2.3,1.5-3.5c0.5-1.2,0.9-2.3,1.3-3.3
		c0.4-1,0.7-2,1-2.9c0.2-0.9,0.4-1.6,0.4-2.2c0-0.9-0.3-1.3-1-1.3c-1.5,0.2-3.3,0.9-5.3,2c-0.8,0.5-1.8,1.2-2.8,1.9
		c-1,0.8-2.2,1.7-3.3,2.9c-1.2,1.1-2.5,2.5-3.8,4c-1.3,1.5-2.8,3.3-4.3,5.3l-0.6-4c2.1-2.2,4.2-4.1,6.2-5.7c2-1.6,4-3,5.8-4.2
		s3.5-2,5-2.6c1.5-0.6,2.8-0.9,3.8-0.9c1.2,0,2.1,0.4,2.6,1.1c0.5,0.7,0.8,1.6,0.8,2.8c0,0.7-0.1,1.5-0.3,2.4
		c-0.2,0.9-0.4,1.8-0.7,2.7c-0.3,0.9-0.6,1.8-1,2.8c-0.4,0.9-0.7,1.8-1.1,2.7l-1.5,3.5c1.6-2.4,3.1-4.4,4.5-6.1c1.4-1.7,2.8-3,4-4.1
		c1.3-1,2.4-1.8,3.4-2.3c1-0.5,2-0.7,2.8-0.7c1.2,0,2.1,0.4,2.6,1.1c0.5,0.7,0.7,1.6,0.7,2.8c0,0.7-0.1,1.5-0.3,2.4
		c-0.2,0.9-0.4,1.8-0.7,2.7c-0.3,0.9-0.6,1.8-0.9,2.8c-0.4,0.9-0.7,1.8-1.1,2.7L161.6,35.3z"/>
	<path fill="white" d="M194.9,52.6c-0.1,0.2-0.2,0.4-0.2,0.6c-0.1,0.2-0.1,0.4-0.1,0.5c0,0.3,0.1,0.4,0.2,0.5c0.1,0.1,0.3,0.1,0.5,0.1
		c0.3,0,0.7-0.2,1.1-0.5c0.4-0.3,0.9-0.7,1.4-1.3l5.9-7.3l0.8,0.6l-7.1,8.8c-0.5,0.6-1,1.2-1.5,1.6c-0.5,0.4-0.9,0.8-1.3,1
		c-0.4,0.2-0.8,0.4-1.2,0.5c-0.4,0.1-0.8,0.2-1.2,0.2c-0.6,0-1.2-0.2-1.6-0.6c-0.4-0.4-0.6-0.9-0.6-1.4c0-0.6,0.1-1.3,0.4-2
		c0.2-0.7,0.6-1.6,1.1-2.6c0.2-0.4,0.4-0.8,0.6-1.4c0.2-0.6,0.5-1.2,0.8-1.9c0.3-0.7,0.6-1.3,0.8-2c0.3-0.7,0.5-1.3,0.7-1.8
		c0.2-0.5,0.4-1,0.5-1.4c0.1-0.4,0.2-0.6,0.2-0.6c0-0.2-0.1-0.3-0.2-0.3c-0.2,0-0.4,0.2-0.6,0.5c-0.1,0.2-0.4,0.5-0.8,1.1
		c-0.4,0.6-0.9,1.2-1.4,2c-0.6,0.8-1.2,1.6-1.8,2.5c-0.6,0.9-1.3,1.8-1.9,2.7c-0.6,0.9-1.3,1.6-1.8,2.4c-0.6,0.7-1.1,1.3-1.5,1.7
		c-1,1-2,1.8-2.7,2.4c-0.8,0.6-1.6,0.9-2.4,0.9c-0.3,0-0.5-0.1-0.9-0.2c-0.3-0.1-0.6-0.3-0.9-0.6c-0.3-0.3-0.5-0.6-0.7-1.1
		c-0.2-0.5-0.3-1.1-0.3-1.9c0-1.1,0.3-2.4,0.8-3.7c0.5-1.4,1.2-2.7,2.1-4.2c0.9-1.4,1.9-2.8,3.1-4.2c1.2-1.4,2.5-2.6,3.9-3.7
		c1.4-1.1,2.9-2,4.4-2.7s3.1-1.2,4.7-1.3v0.6c-1.3,0.4-2.6,1-3.8,1.8c-1.2,0.8-2.3,1.7-3.4,2.8c-1.1,1.1-2,2.2-2.9,3.4
		c-0.9,1.2-1.6,2.4-2.2,3.5s-1.1,2.3-1.4,3.3c-0.3,1-0.5,1.9-0.5,2.6c0,0.4,0.1,0.7,0.2,1c0.1,0.3,0.3,0.4,0.5,0.4
		c0.2,0,0.6-0.2,1.1-0.6s1-0.9,1.6-1.6c0.6-0.7,1.3-1.4,2-2.3c0.7-0.9,1.4-1.7,2.2-2.7c0.7-0.9,1.5-1.9,2.2-2.8
		c0.7-0.9,1.4-1.8,2-2.7c0.9-1.3,1.7-2.4,2.4-3.2c0.6-0.8,1.2-1.5,1.6-2s0.9-0.9,1.2-1.1c0.4-0.2,0.8-0.3,1.2-0.3
		c0.5,0,0.8,0.1,0.9,0.4c0.2,0.2,0.3,0.5,0.3,0.9c0,0.3,0,0.6-0.1,0.9c-0.1,0.3-0.2,0.6-0.3,0.8c-0.1,0.2-0.3,0.7-0.6,1.4
		c-0.3,0.7-0.6,1.6-1.1,2.6c-0.4,1-0.8,2.1-1.3,3.2s-0.9,2.2-1.3,3.3s-0.8,1.9-1.1,2.7C195.2,51.8,195,52.3,194.9,52.6z"/>
	<path fill="white" d="M210.8,39.2c0-0.1,0-0.2-0.1-0.3c-0.1-0.1-0.2-0.1-0.3-0.1c-0.2,0-0.4,0.1-0.6,0.4l-6.4,7.9l-0.8-0.6l7.3-9
		c0.6-0.7,1.1-1.3,1.8-1.8c0.6-0.5,1.3-0.8,1.9-0.8c0.6,0,1.1,0.2,1.4,0.5c0.3,0.3,0.4,0.7,0.4,1.1c0,0.4-0.1,0.9-0.2,1.4
		c-0.2,0.5-0.3,1.1-0.6,1.6L210.1,50c-0.1,0.3-0.2,0.5-0.2,0.7c0,0.2,0.1,0.3,0.3,0.3c0.2,0,0.5-0.2,0.8-0.6l6.8-10.1
		c0.7-1,1.3-1.9,1.9-2.6c0.5-0.7,1.1-1.3,1.6-1.8c0.5-0.5,0.9-0.8,1.4-1s0.9-0.3,1.4-0.3c0.8,0,1.4,0.2,1.9,0.5
		c0.4,0.3,0.6,0.8,0.6,1.4c0,0.4-0.1,0.7-0.2,1.1s-0.2,0.7-0.3,1.1l-5.6,13.8c-0.1,0.2-0.2,0.4-0.2,0.6c-0.1,0.2-0.1,0.4-0.1,0.5
		c0,0.3,0.1,0.4,0.2,0.5c0.1,0.1,0.3,0.1,0.5,0.1c0.3,0,0.7-0.2,1.1-0.5c0.4-0.3,0.9-0.7,1.4-1.3l5.9-7.3l0.8,0.6l-7.1,8.8
		c-0.5,0.6-1,1.2-1.5,1.6c-0.5,0.4-0.9,0.8-1.3,1c-0.4,0.2-0.8,0.4-1.2,0.5c-0.4,0.1-0.8,0.2-1.2,0.2c-0.6,0-1.2-0.2-1.6-0.6
		c-0.4-0.4-0.6-0.9-0.6-1.4c0-0.5,0.1-1.2,0.4-1.9c0.3-0.7,0.6-1.6,1.1-2.7l5.2-12.4c0.1-0.2,0.1-0.3,0.1-0.5c0-0.4-0.2-0.6-0.6-0.6
		c-0.2,0-0.4,0.1-0.6,0.2c-0.2,0.1-0.4,0.3-0.6,0.6l-10.7,15.8c-0.8,1.3-1.6,2.1-2.2,2.7c-0.6,0.5-1.3,0.8-1.9,0.8
		c-1,0-1.5-0.5-1.5-1.4c0-0.5,0.1-1.1,0.4-1.8c0.2-0.7,0.6-1.6,1-2.7l5.4-12.6C210.8,39.4,210.8,39.3,210.8,39.2z"/>
	<path fill="white" d="M243,52.6c-0.1,0.2-0.2,0.4-0.2,0.6c-0.1,0.2-0.1,0.4-0.1,0.5c0,0.3,0.1,0.4,0.2,0.5c0.1,0.1,0.3,0.1,0.5,0.1
		c0.3,0,0.7-0.2,1.1-0.5c0.4-0.3,0.9-0.7,1.4-1.3l5.9-7.3l0.8,0.6l-7.1,8.8c-0.5,0.6-1,1.2-1.5,1.6c-0.5,0.4-0.9,0.8-1.3,1
		c-0.4,0.2-0.8,0.4-1.2,0.5c-0.4,0.1-0.8,0.2-1.2,0.2c-0.6,0-1.2-0.2-1.6-0.6c-0.4-0.4-0.6-0.9-0.6-1.4c0-0.6,0.1-1.3,0.4-2
		c0.2-0.7,0.6-1.6,1.1-2.6c0.2-0.4,0.4-0.8,0.6-1.4c0.2-0.6,0.5-1.2,0.8-1.9c0.3-0.7,0.6-1.3,0.8-2c0.3-0.7,0.5-1.3,0.7-1.8
		c0.2-0.5,0.4-1,0.5-1.4c0.1-0.4,0.2-0.6,0.2-0.6c0-0.2-0.1-0.3-0.2-0.3c-0.2,0-0.4,0.2-0.6,0.5c-0.1,0.2-0.4,0.5-0.8,1.1
		c-0.4,0.6-0.9,1.2-1.4,2c-0.6,0.8-1.2,1.6-1.8,2.5c-0.6,0.9-1.3,1.8-1.9,2.7c-0.6,0.9-1.3,1.6-1.8,2.4c-0.6,0.7-1.1,1.3-1.5,1.7
		c-1,1-2,1.8-2.7,2.4c-0.8,0.6-1.6,0.9-2.4,0.9c-0.3,0-0.5-0.1-0.9-0.2c-0.3-0.1-0.6-0.3-0.9-0.6c-0.3-0.3-0.5-0.6-0.7-1.1
		c-0.2-0.5-0.3-1.1-0.3-1.9c0-1.1,0.3-2.4,0.8-3.7c0.5-1.4,1.2-2.7,2.1-4.2c0.9-1.4,1.9-2.8,3.1-4.2c1.2-1.4,2.5-2.6,3.9-3.7
		c1.4-1.1,2.9-2,4.4-2.7s3.1-1.2,4.7-1.3v0.6c-1.3,0.4-2.6,1-3.8,1.8c-1.2,0.8-2.3,1.7-3.4,2.8c-1.1,1.1-2,2.2-2.9,3.4
		c-0.9,1.2-1.6,2.4-2.2,3.5s-1.1,2.3-1.4,3.3c-0.3,1-0.5,1.9-0.5,2.6c0,0.4,0.1,0.7,0.2,1c0.1,0.3,0.3,0.4,0.5,0.4
		c0.2,0,0.6-0.2,1.1-0.6s1-0.9,1.6-1.6c0.6-0.7,1.3-1.4,2-2.3c0.7-0.9,1.4-1.7,2.2-2.7c0.7-0.9,1.5-1.9,2.2-2.8
		c0.7-0.9,1.4-1.8,2-2.7c0.9-1.3,1.7-2.4,2.4-3.2c0.6-0.8,1.2-1.5,1.6-2s0.9-0.9,1.2-1.1c0.4-0.2,0.8-0.3,1.2-0.3
		c0.5,0,0.8,0.1,0.9,0.4c0.2,0.2,0.3,0.5,0.3,0.9c0,0.3,0,0.6-0.1,0.9c-0.1,0.3-0.2,0.6-0.3,0.8c-0.1,0.2-0.3,0.7-0.6,1.4
		c-0.3,0.7-0.6,1.6-1.1,2.6c-0.4,1-0.8,2.1-1.3,3.2s-0.9,2.2-1.3,3.3s-0.8,1.9-1.1,2.7C243.3,51.8,243.1,52.3,243,52.6z"/>
	<path fill="white" d="M274.9,46.3c-1,1.3-2,2.5-3,3.6c-0.9,1.1-1.9,2.1-2.8,3c-0.9,0.9-1.9,1.8-2.8,2.7c-0.9,0.8-1.9,1.7-3,2.6l-3.1,7.5
		c-0.7,1.7-1.4,3.2-2.1,4.5c-0.7,1.3-1.5,2.5-2.3,3.4c-0.8,0.9-1.7,1.6-2.7,2.1c-0.9,0.5-2,0.7-3.1,0.7c-0.8,0-1.4-0.1-1.9-0.4
		c-0.5-0.2-0.9-0.6-1.3-1c-0.3-0.4-0.6-0.8-0.7-1.3c-0.1-0.5-0.2-0.9-0.2-1.4c0-1.4,0.4-2.7,1.2-3.9c0.8-1.2,1.8-2.3,3.1-3.4
		c1.3-1.1,2.7-2.2,4.3-3.3s3.2-2.2,4.8-3.5l6.3-15.3c0.1-0.3,0.2-0.5,0.2-0.6c0-0.2-0.1-0.3-0.2-0.3c-0.2,0-0.4,0.2-0.6,0.5
		c-0.1,0.2-0.4,0.5-0.8,1.1c-0.4,0.6-0.9,1.2-1.4,2c-0.6,0.8-1.2,1.6-1.8,2.5c-0.6,0.9-1.3,1.8-1.9,2.7c-0.6,0.9-1.3,1.6-1.8,2.4
		c-0.6,0.7-1.1,1.3-1.5,1.7c-1,1-2,1.8-2.7,2.4c-0.8,0.6-1.6,0.9-2.4,0.9c-0.3,0-0.5-0.1-0.9-0.2c-0.3-0.1-0.6-0.3-0.9-0.6
		c-0.3-0.3-0.5-0.6-0.7-1.1c-0.2-0.5-0.3-1.1-0.3-1.9c0-1.1,0.3-2.4,0.8-3.7c0.5-1.4,1.2-2.7,2.1-4.2c0.9-1.4,1.9-2.8,3.1-4.2
		c1.2-1.4,2.5-2.6,3.9-3.7c1.4-1.1,2.9-2,4.4-2.7s3.1-1.2,4.7-1.3v0.6c-1.3,0.4-2.6,1-3.8,1.8c-1.2,0.8-2.3,1.7-3.4,2.8
		c-1.1,1.1-2,2.2-2.9,3.4c-0.9,1.2-1.6,2.4-2.2,3.5s-1.1,2.3-1.4,3.3c-0.3,1-0.5,1.9-0.5,2.6c0,0.4,0.1,0.7,0.2,1
		c0.1,0.3,0.3,0.4,0.5,0.4c0.2,0,0.6-0.2,1.1-0.6s1-0.9,1.6-1.6c0.6-0.7,1.3-1.4,2-2.3c0.7-0.9,1.4-1.7,2.2-2.7
		c0.7-0.9,1.5-1.9,2.2-2.8c0.7-0.9,1.4-1.8,2-2.7c0.9-1.3,1.7-2.4,2.4-3.2c0.6-0.8,1.2-1.5,1.6-2c0.5-0.5,0.9-0.9,1.2-1.1
		c0.4-0.2,0.8-0.3,1.2-0.3c0.5,0,0.8,0.1,0.9,0.4c0.2,0.2,0.3,0.5,0.3,0.9c0,0.3,0,0.6-0.1,0.9c-0.1,0.3-0.2,0.6-0.3,0.8l-7.5,18
		c1.4-1.2,2.9-2.7,4.6-4.3c1.6-1.6,3.4-3.6,5.3-5.9L274.9,46.3z M258.5,60.2c-1.7,1.3-3.3,2.4-4.7,3.4c-1.4,1-2.6,2-3.6,2.9
		c-1,0.9-1.7,1.8-2.3,2.8c-0.5,0.9-0.8,2-0.8,3.1c0,0.3,0,0.6,0.1,0.9c0.1,0.3,0.2,0.6,0.4,0.9c0.2,0.3,0.4,0.5,0.7,0.6
		c0.3,0.2,0.7,0.2,1.1,0.2c1.1,0,2.1-0.6,3-1.8c0.9-1.2,1.8-2.8,2.6-4.9L258.5,60.2z"/>
	<path fill="white" d="M278.3,56.8c0.8,0,1.6-0.2,2.5-0.5c0.9-0.3,2-0.9,3.1-1.8c1.2-0.8,2.4-2,3.8-3.4c1.4-1.4,3-3.2,4.7-5.4l0.8,0.6
		c-1.5,1.9-2.9,3.5-4.1,4.8c-1.3,1.3-2.4,2.4-3.4,3.3c-1,0.9-2,1.6-2.8,2c-0.8,0.5-1.6,0.8-2.2,1.1c-0.6,0.2-1.2,0.4-1.7,0.4
		c-0.5,0.1-0.9,0.1-1.3,0.1c-0.5,0-1.1-0.1-1.7-0.2c-0.6-0.2-1.3-0.4-1.8-0.8c-0.6-0.4-1-0.9-1.4-1.6c-0.4-0.7-0.6-1.6-0.6-2.7
		c0-1.6,0.3-3.2,0.8-4.7c0.5-1.5,1.2-2.9,2.1-4.3c0.9-1.3,1.8-2.5,2.9-3.6c1.1-1.1,2.2-2,3.3-2.8s2.2-1.4,3.3-1.8
		c1.1-0.4,2-0.6,2.8-0.6c1.1,0,2,0.3,2.5,1c0.5,0.7,0.8,1.5,0.8,2.6c0,1-0.2,1.9-0.6,2.8c-0.4,0.9-1,1.8-1.7,2.6
		c-0.7,0.8-1.5,1.6-2.5,2.2c-0.9,0.7-1.9,1.3-2.9,1.7c-1,0.5-2.1,0.9-3.1,1.1c-1,0.3-2,0.4-2.9,0.4c-0.3,0.8-0.5,1.6-0.7,2.3
		c-0.2,0.7-0.2,1.4-0.2,2c0,1.2,0.2,2,0.7,2.4C277.1,56.6,277.7,56.8,278.3,56.8z M286.4,36.1c-0.6,0-1.3,0.4-2.1,1.1
		c-0.8,0.7-1.7,1.7-2.5,2.9c-0.9,1.2-1.7,2.5-2.5,4c-0.8,1.5-1.5,2.9-2,4.3c1.5-0.3,2.9-0.8,4.2-1.6c1.3-0.8,2.3-1.7,3.2-2.7
		c0.9-1,1.6-2.2,2.1-3.3c0.5-1.2,0.7-2.2,0.7-3.2c0-0.6-0.1-1-0.3-1.2C287,36.2,286.7,36.1,286.4,36.1z"/>
	<path fill="white" d="M300,53.2c-0.1,0.2-0.1,0.4-0.1,0.5c0,0.3,0.1,0.4,0.2,0.5c0.1,0.1,0.3,0.1,0.5,0.1c0.3,0,0.7-0.2,1.1-0.5
		c0.4-0.3,0.9-0.7,1.4-1.3l5.9-7.3l0.8,0.6l-7.1,8.8c-0.5,0.6-1,1.2-1.4,1.6c-0.4,0.4-0.9,0.8-1.2,1c-0.4,0.2-0.8,0.4-1.2,0.5
		c-0.4,0.1-0.8,0.2-1.2,0.2c-0.6,0-1.2-0.2-1.6-0.6c-0.4-0.4-0.6-0.9-0.6-1.4c0-0.5,0.1-1.2,0.4-1.9c0.3-0.7,0.6-1.6,1.1-2.7
		l4.5-10.8c0.1-0.3,0.2-0.5,0.3-0.8c0.1-0.3,0.2-0.5,0.3-0.8c0.1-0.3,0.2-0.5,0.2-0.7c0.1-0.2,0.1-0.4,0.1-0.5c0-0.1,0-0.2-0.1-0.2
		c-0.1-0.1-0.2-0.1-0.3-0.1c-0.3,0-0.6,0-0.9,0c-0.3,0-0.6-0.1-1-0.2c-0.4,0.5-0.8,1.1-1.3,1.7c-0.5,0.6-1,1.4-1.6,2.2
		c-0.6,0.8-1.3,1.7-2.1,2.7c-0.8,1-1.6,2.1-2.6,3.3l-0.8-0.6c1.6-2.1,3.1-3.9,4.2-5.4c1.2-1.5,2.2-2.9,3.1-4.2
		c-0.5-0.2-0.9-0.5-1.2-0.9c-0.3-0.4-0.5-0.9-0.5-1.5c0-0.2,0.1-0.6,0.2-1c0.1-0.4,0.3-0.9,0.6-1.3c0.3-0.4,0.6-0.8,1-1.1
		c0.4-0.3,0.9-0.5,1.4-0.5c0.4,0,0.8,0.1,1.2,0.4c0.4,0.2,0.6,0.6,0.6,1.1c0,0.4-0.1,0.8-0.4,1.4c-0.3,0.6-0.7,1.3-1.4,2.1
		c0.3,0.2,0.6,0.2,0.9,0.3c0.3,0,0.6,0,0.9,0c0.4,0,0.8,0,1.1,0c0.3,0,0.7,0,1,0c0.6,0,1,0.2,1.3,0.5c0.2,0.3,0.4,0.6,0.4,1
		c0,0.4-0.1,0.9-0.3,1.5c-0.2,0.6-0.4,1.1-0.5,1.5l-5,11.9C300.2,52.8,300.1,53,300,53.2z"/>
</g>
</svg>
